# xmcd CD database file
#
# Track frame offsets:
#	150
#	12511
#	26647
#	41073
#	55394
#	70153
#	83636
#	96785
#	110369
#	124285
#	137701
#	149924
#	163268
#	177141
#	192150
#	205866
#	220082
#	234040
#	247530
#	258846
#	270539
#
# Disc length: 3760 seconds
#
# Revision: 1
# Processed by: cddbd v1.5.2PL0 Copyright (c) Steve Scherf et al.
# Submitted via: CDex 1.70beta2
#
DISCID=280eae15
DTITLE=Miles Davis - The Complete Recordings 1945 - 1960 - CD 04: The Charlie Parker Years Vol. 1
DYEAR=1947
DGENRE=Jazz
TTITLE0=Charlie Parker Rebeboppers (with Miles Davis) - Billie’s Bounce (Tk 1)
TTITLE1=Charlie Parker Rebeboppers (with Miles Davis) - Billie’s Bounce (Tk 3)
TTITLE2=Charlie Parker Rebeboppers (with Miles Davis) - Billie’s Bounce (Tk 5)
TTITLE3=Charlie Parker Rebeboppers (with Miles Davis) - Now’s The Time (Tk 3)
TTITLE4=Charlie Parker Rebeboppers (with Miles Davis) - Now’s The Time (Tk 4)
TTITLE5=Charlie Parker Rebeboppers (with Miles Davis) - Thriving On A Riff (TK 1)
TTITLE6=Charlie Parker Rebeboppers (with Miles Davis) - Thriving On A Riff (TK 3)
TTITLE7=Charlie Parker Septet (with Miles Davis) - Moose The Moche (Tk 1)
TTITLE8=Charlie Parker Septet (with Miles Davis) - Moose The Moche (Tk 2)
TTITLE9=Charlie Parker Septet (with Miles Davis) - Moose The Moche (Tk 3)
TTITLE10=Charlie Parker Septet (with Miles Davis) - Yardbird Suite (Tk 1)
TTITLE11=Charlie Parker Septet (with Miles Davis) - Yardbird Suite (Tk 4)
TTITLE12=Charlie Parker Septet (with Miles Davis) - Ornithology (Tk 1)
TTITLE13=Charlie Parker Septet (with Miles Davis) - Ornithology (Bird Lore)(Tk 2)
TTITLE14=Charlie Parker Septet (with Miles Davis) - Ornithology (Tk 4)
TTITLE15=Charlie Parker Septet (with Miles Davis) - A Night In Tunisia (Tk 4)
TTITLE16=Charlie Parker Septet (with Miles Davis) - A Night In Tunisia (Tk 5)
TTITLE17=Charlie Parker All Stars (with Miles Davis) - Donna Lee (Tk 2)
TTITLE18=Charlie Parker All Stars (with Miles Davis) - Donna Lee (Tk 3)
TTITLE19=Charlie Parker All Stars (with Miles Davis) - Donna Lee (Tk 4)
TTITLE20=Charlie Parker All Stars (with Miles Davis) - Donna Lee (Tk 5)
EXTD=YEAR: 1947
EXTT0=
EXTT1=
EXTT2=
EXTT3=
EXTT4=
EXTT5=
EXTT6=
EXTT7=
EXTT8=
EXTT9=
EXTT10=
EXTT11=
EXTT12=
EXTT13=
EXTT14=
EXTT15=
EXTT16=
EXTT17=
EXTT18=
EXTT19=
EXTT20=
PLAYORDER=
